<svg width="20" height="20" viewBox="0 0 20 20" fill="none" xmlns="http://www.w3.org/2000/svg">
<path d="M11.31 18.4002C9.98774 18.6067 8.63535 18.4981 7.36296 18.0832C6.09057 17.6683 4.93413 16.9588 3.98779 16.0124C3.04144 15.0661 2.33193 13.9096 1.91701 12.6372C1.50209 11.3648 1.39348 10.0125 1.60004 8.69016C1.07877 7.69867 0.888291 6.56644 1.05644 5.45897C1.2246 4.3515 1.74257 3.32684 2.53464 2.53477C3.32672 1.74269 4.35138 1.22472 5.45885 1.05657C6.56632 0.888413 7.69855 1.07889 8.69003 1.60016C10.0123 1.39361 11.3647 1.50221 12.6371 1.91713C13.9095 2.33205 15.0659 3.04156 16.0123 3.98791C16.9586 4.93425 17.6681 6.09069 18.0831 7.36308C18.498 8.63547 18.6066 9.98786 18.4 11.3102C18.9213 12.3016 19.1118 13.4339 18.9436 14.5413C18.7755 15.6488 18.2575 16.6735 17.4654 17.4655C16.6734 18.2576 15.6487 18.7756 14.5412 18.9437C13.4337 19.1119 12.3015 18.9214 11.31 18.4002ZM10.052 15.1562H10.012C12.884 15.1562 14.315 13.7702 14.315 11.9132C14.315 10.7152 13.764 9.44216 11.589 8.95516L9.60604 8.51516C8.85104 8.34316 7.98404 8.11516 7.98404 7.40016C7.98404 6.68516 8.60404 6.18716 9.70804 6.18716C11.938 6.18716 11.735 7.71516 12.839 7.71516C13.415 7.71516 13.932 7.37316 13.932 6.78516C13.932 5.41516 11.735 4.38516 9.87604 4.38516C7.85504 4.38516 5.70304 5.24416 5.70304 7.52916C5.70304 8.62716 6.09703 9.79916 8.26303 10.3422L10.952 11.0132C11.768 11.2152 11.97 11.6722 11.97 12.0852C11.97 12.7722 11.286 13.4432 10.052 13.4432C7.63504 13.4432 7.97404 11.5862 6.67804 11.5862C6.09804 11.5862 5.67504 11.9842 5.67504 12.5572C5.67504 13.6712 7.02704 15.1552 10.052 15.1552V15.1562Z" fill="#FF5300"/>
</svg>
